<svg width="230" height="311" viewBox="0 0 230 311" fill="none" xmlns="http://www.w3.org/2000/svg">
<path d="M209.52 265.771C209.52 265.771 218.345 273.038 199.658 278.748C164.879 289.129 53.7945 292.244 22.6495 278.748C11.7489 274.076 32.5123 267.328 39.26 266.29C46.0082 264.733 49.6416 264.733 49.6416 264.733C37.7032 256.427 -29.7779 281.862 15.3821 289.129C139.443 309.374 241.704 280.305 209.52 265.771ZM85.4594 309.893C141.521 313.527 227.169 307.816 229.245 281.343C229.245 281.343 225.093 291.725 183.047 299.511C135.291 308.336 76.1163 307.297 41.3373 301.587C41.3373 301.587 48.6043 307.816 85.4594 309.893Z" fill="url(#paint0_linear_17_60)"/>
<path d="M74.0397 240.336C74.0397 240.336 62.1006 247.603 82.345 249.679C106.742 252.793 119.719 252.275 146.711 247.084C146.711 247.084 153.978 251.755 163.841 255.389C103.108 281.343 26.284 253.831 74.0397 240.336ZM66.2533 206.595C66.2533 206.595 53.2764 216.458 73.5205 218.534C99.994 221.13 120.757 221.648 156.574 214.381C156.574 214.381 161.246 219.572 169.032 222.168C95.8412 243.969 13.8253 224.244 66.2533 206.595ZM79.7493 171.298C79.7493 171.298 23.1694 184.794 59.5054 189.465C75.0779 191.541 105.704 191.023 134.253 188.946C157.612 186.87 180.971 182.717 180.971 182.717C180.971 182.717 172.666 186.351 166.956 189.985C109.338 205.038 -1.22751 198.29 30.4365 182.717C57.4288 169.74 79.7493 171.298 79.7493 171.298ZM180.971 227.877C239.108 197.771 212.116 168.702 193.429 172.336C188.757 173.374 186.681 174.412 186.681 174.412C186.681 174.412 188.238 171.298 191.872 170.26C228.727 157.282 257.796 209.19 179.933 229.435C179.933 229.435 180.452 228.916 180.971 227.877Z" fill="url(#paint1_linear_17_60)"/>
<path d="M145.674 0C145.674 0 177.857 32.7022 115.048 82.0153C64.6964 121.984 103.628 144.824 115.048 170.778C85.4598 144.305 64.1774 120.946 78.7116 99.1447C99.9944 66.9615 158.651 51.3892 145.674 0ZM129.063 148.977C144.116 166.107 124.91 181.68 124.91 181.68C124.91 181.68 163.322 161.954 145.674 137.557C129.582 114.199 117.124 102.779 184.605 63.8474C184.605 63.8474 78.1928 90.3208 129.063 148.977Z" fill="url(#paint2_linear_17_60)"/>
<defs>
<linearGradient id="paint0_linear_17_60" x1="229" y1="311" x2="-292" y2="358" gradientUnits="userSpaceOnUse">
<stop offset="0.153256" stop-color="#4E7896"/>
<stop offset="1" stop-color="#14F195"/>
</linearGradient>
<linearGradient id="paint1_linear_17_60" x1="-134.5" y1="138" x2="147.5" y2="270.5" gradientUnits="userSpaceOnUse">
<stop offset="0.176884" stop-color="#9945FF"/>
<stop offset="0.632245" stop-color="#14F195"/>
<stop offset="0.905" stop-color="#4E7896"/>
</linearGradient>
<linearGradient id="paint2_linear_17_60" x1="129.316" y1="0" x2="77.5" y2="193" gradientUnits="userSpaceOnUse">
<stop offset="0.2" stop-color="#F58219"/>
<stop offset="0.646403" stop-color="#9945FF"/>
<stop offset="1" stop-color="#14F195"/>
</linearGradient>
</defs>
</svg>
